<svg xmlns="http://www.w3.org/2000/svg" xmlns:xlink="http://www.w3.org/1999/xlink" viewBox="0,0,256,256" width="100px" height="100px" fill-rule="nonzero"><g fill="#2e9dff" fill-rule="nonzero" stroke="none" stroke-width="1" stroke-linecap="butt" stroke-linejoin="miter" stroke-miterlimit="10" stroke-dasharray="" stroke-dashoffset="0" font-family="none" font-weight="none" font-size="none" text-anchor="none" style="mix-blend-mode: normal"><g transform="scale(2.56,2.56)"><path d="M71.64453,11.0293c-0.68869,-0.0151 -1.3904,0.07143 -2.08594,0.26953l-53.49023,15.23438c-3.7107,1.05655 -5.88411,4.92394 -4.81836,8.60742c0.00065,0.0013 0.0013,0.00261 0.00195,0.00391l0.76367,2.60938l7.30469,45.37305c0.60845,3.78477 4.21362,6.3726 8.01563,5.76953l54.76953,-8.68164c3.80209,-0.60192 6.41824,-4.17914 5.80859,-7.96289l-7.31055,-45.41016c-0.07695,-0.48026 -0.48826,-0.83553 -0.97461,-0.8418c-0.05622,-0.00082 -0.11241,0.0031 -0.16797,0.01172l-50.20703,7.95508l49.08203,-13.97656c0.25656,-0.07305 0.4733,-0.24558 0.60203,-0.47921c0.12874,-0.23363 0.1588,-0.50902 0.08351,-0.76493l-0.78906,-2.69336c-0.80009,-2.76196 -3.19328,-4.64897 -5.9043,-4.97461c-0.22599,-0.02715 -0.45403,-0.04379 -0.68359,-0.04883zM71.11133,13.04102c0.33378,-0.02666 0.66431,-0.02045 0.98828,0.01758c1.94384,0.22814 3.64118,1.57613 4.21289,3.55273c0,0.00065 0,0.0013 0,0.00195l0.37109,1.27148l-9.04687,-3.95898l2.46875,-0.70312c0.33506,-0.09543 0.67208,-0.15498 1.00586,-0.18164zM66.125,14.35547l9.73633,4.25977l-7.77148,2.21289l-9.72852,-4.26172zM56.84766,16.99805l9.73438,4.25977l-7.7793,2.21484l-9.73242,-4.25977zM47.56055,19.64258l9.73242,4.25977l-7.77344,2.21484l-9.73242,-4.26172zM38.27734,22.28711l9.73438,4.25977l-7.78125,2.21484l-9.72461,-4.26172zM28.99609,24.92969l9.72461,4.26367l-7.76562,2.21094l-9.73828,-4.25977zM19.70508,27.57422l9.73828,4.26172l-7.78125,2.21484l-7.90039,-3.46289c0.63324,-0.99333 1.61145,-1.77916 2.85352,-2.13281zM78.05859,28.25977l-5.96875,8.02734l-8.11719,1.28711l5.95898,-8.02539zM78.89648,28.8125l7.04297,43.75781c0.43636,2.70825 -1.40458,5.23584 -4.14648,5.66992l-54.76953,8.67969c-0.00065,0 -0.0013,0 -0.00195,0c-2.74199,0.43493 -5.29102,-1.4021 -5.72656,-4.11133l-5.88477,-36.55469c0.06771,-0.03508 0.1265,-0.08519 0.17188,-0.14648l6.69531,-9.00781l8.11719,-1.28711l-6.08594,8.18945c-0.12061,0.16326 -0.13056,0.38324 -0.02519,0.55673c0.10538,0.17349 0.30517,0.26606 0.50566,0.23429l9.46875,-1.5c0.12949,-0.02011 0.24591,-0.09024 0.32422,-0.19531l6.66406,-9.00391l8.21289,-1.30078l-6.08984,8.18945c-0.12018,0.16298 -0.13021,0.38235 -0.0254,0.55561c0.10481,0.17326 0.30377,0.26621 0.50392,0.23541l9.53125,-1.50977c0.12878,-0.02059 0.24442,-0.09067 0.32227,-0.19531l6.69922,-9.00977l8.11914,-1.28711l-6.08008,8.18945c-0.12156,0.16296 -0.13236,0.38329 -0.02732,0.55735c0.10504,0.17406 0.305,0.26721 0.50584,0.23562l9.53125,-1.50977c0.12878,-0.02059 0.24442,-0.09068 0.32227,-0.19531zM58.98633,31.2832l-5.9668,8.02539l-8.11719,1.28711l5.96875,-8.02734zM13.31055,31.48242l6.83984,3l-6.46875,1.8418l-0.50977,-1.73828c-0.30852,-1.06632 -0.22709,-2.14207 0.13867,-3.10352zM39.83789,34.31641l-5.9375,8.02148l-8.05859,1.27734l5.9668,-8.02539zM20.86523,37.32422l-5.66602,7.62109l-1.05469,-6.55664zM62.50586,40.84961c-0.02816,0.00023 -0.05626,0.00285 -0.08398,0.00781l-43.19727,6.8457c-0.13148,0.02064 -0.2493,0.09285 -0.32739,0.20062c-0.07808,0.10778 -0.10998,0.24223 -0.08863,0.3736l5.47656,34.01953c0.11406,0.70011 0.54808,1.11729 0.80664,1.30273c0.25672,0.18511 0.79326,0.46824 1.49609,0.35547l54.61719,-8.65625c0.00915,-0.00105 0.01827,-0.00235 0.02734,-0.00391l0.02148,-0.00195c0.00654,-0.00117 0.01305,-0.00248 0.01953,-0.00391c0.03266,-0.00528 0.06472,-0.01378 0.0957,-0.02539c1.03513,-0.21824 1.74323,-1.21285 1.57422,-2.26562l-2.83008,-17.57812c-0.03515,-0.24105 -0.23889,-0.4217 -0.48242,-0.42773c-0.15035,-0.0041 -0.29456,0.0597 -0.39266,0.17371c-0.0981,0.11401 -0.13967,0.26612 -0.1132,0.41418l2.83008,17.57813c0.08751,0.54511 -0.28214,1.05272 -0.83789,1.14258c-0.0144,0.00133 -0.02874,0.00329 -0.04297,0.00586l-54.64453,8.66016c-0.36916,0.05923 -0.62867,-0.08884 -0.75195,-0.17773c-0.00065,0 -0.0013,0 -0.00195,0c-0.12151,-0.08711 -0.34261,-0.28568 -0.40234,-0.65234l-5.39844,-33.52344l42.70313,-6.76758c0.26386,-0.03319 0.45558,-0.26709 0.43634,-0.53232c-0.01924,-0.26524 -0.24272,-0.46902 -0.50861,-0.46377zM77.85938,43.99219c-0.15035,-0.0041 -0.29456,0.0597 -0.39266,0.17371c-0.0981,0.11401 -0.13967,0.26612 -0.1132,0.41418l0.16211,1c0.02191,0.18227 0.14194,0.33788 0.31267,0.40536c0.17073,0.06748 0.36471,0.03598 0.50531,-0.08205c0.14061,-0.11803 0.20523,-0.30362 0.16835,-0.48346l-0.16016,-1c-0.03515,-0.24105 -0.23889,-0.4217 -0.48242,-0.42773zM78.3418,46.99219c-0.15001,-0.0035 -0.29367,0.06056 -0.39132,0.17449c-0.09765,0.11393 -0.13898,0.26569 -0.11258,0.4134l0.48242,3c0.0286,0.17655 0.14922,0.32443 0.31641,0.38793c0.1672,0.0635 0.35557,0.03297 0.49416,-0.08008c0.13859,-0.11305 0.20633,-0.29146 0.17771,-0.468l-0.48437,-3c-0.03515,-0.24105 -0.23889,-0.4217 -0.48242,-0.42773z"></path></g></g></svg>